<svg width="16" height="16" viewBox="0 0 16 16" fill="none" xmlns="http://www.w3.org/2000/svg">
<path d="M14.8251 0H1.1749C0.512684 0 0 0.512 0 1.152V14.848C0 15.488 0.534045 16 1.1749 16H14.8251C15.4873 16 16 15.488 16 14.848V1.152C16 0.512 15.466 0 14.8251 0Z" fill="#0377AE"/>
<path d="M3.54611 2.19726C4.31514 2.19726 4.91327 2.81593 4.91327 3.58393C4.91327 4.35193 4.29377 4.94926 3.54611 4.94926C2.77709 4.94926 2.17896 4.3306 2.17896 3.58393C2.17896 2.81593 2.79845 2.19726 3.54611 2.19726ZM2.34985 5.9946H4.72101V13.6319H2.34985V5.9946Z" fill="#FEFEFE"/>
<path d="M6.23779 5.99461H8.52351V7.03995H8.56623C8.88666 6.44261 9.65568 5.80261 10.8092 5.80261C13.2231 5.80261 13.6503 7.38128 13.6503 9.42928V13.6106H11.2792V9.89861C11.2792 9.00261 11.2578 7.87195 10.0402 7.87195C8.80121 7.87195 8.60895 8.83195 8.60895 9.83461V13.6106H6.23779V5.97328V5.99461Z" fill="#FEFEFE"/>
</svg>
